#!OML:ASF H:\Dans Jumps\Project 1\Capture day 1\Session 1\subject.ASF
:FULLY-SPECIFIED
:DEGREES
101
root 0.55001 17.4305 -14.4753 6.89514 -0.260054 -1.53458
lowerback 1.17509 -0.691217 0.363708
upperback 4.16522 -0.982897 1.90017
thorax 3.65249 -0.514452 1.73283
lowerneck -10.1205 0.435839 -1.7163
upperneck 28.6373 1.03853 -0.204459
head 10.87 0.261006 0.348096
rclavicle -8.94531e-015 3.18055e-015
rhumerus -25.6739 -15.0183 -79.7867
rradius 25.4397
rwrist 29.3892
rhand -18.6611 -26.4875
rfingers 7.12502
rthumb 7.63231 -56.3298
lclavicle -8.94531e-015 3.18055e-015
lhumerus -20.5899 -0.379353 87.7109
lradius 18.7344
lwrist 6.27366
lhand -26.1926 -3.87359
lfingers 7.12502
lthumb 0.35969 26.1058
rfemur -17.7467 -2.20335 20.0144
rtibia 27.6528
rfoot -15.3131 -3.59848
rtoes 8.96667
lfemur -16.9713 8.28413 -18.488
ltibia 25.7448
lfoot -12.9682 6.06007
ltoes -1.99219
102
root 0.551421 17.4289 -14.4751 6.89091 -0.270695 -1.53178
lowerback 1.18381 -0.690419 0.3624
upperback 4.17164 -0.981729 1.89734
thorax 3.65416 -0.513891 1.73075
lowerneck -10.1527 0.440113 -1.71432
upperneck 28.6567 1.04417 -0.201099
head 10.8837 0.263874 0.349845
rclavicle 2.18663e-015 7.95139e-016
rhumerus -25.6699 -15.074 -79.7631
rradius 25.4229
rwrist 29.4328
rhand -18.6642 -26.4802
rfingers 7.12502
rthumb 7.62924 -56.3226
lclavicle 2.18663e-015 7.95139e-016
lhumerus -20.5916 -0.355474 87.7128
lradius 18.731
lwrist 6.25399
lhand -26.1906 -3.88034
lfingers 7.12502
lthumb 0.361694 26.0991
rfemur -17.7627 -2.20171 20.0064
rtibia 27.6925
rfoot -15.338 -3.60812
rtoes 8.91465
lfemur -16.9856 8.29056 -18.4967
ltibia 25.7874
lfoot -12.991 6.08083
ltoes -2.03228
103
root 0.552765 17.4273 -14.4749 6.88685 -0.282868 -1.52656
lowerback 1.19245 -0.690235 0.357654
upperback 4.17847 -0.981359 1.89457
thorax 3.6564 -0.513848 1.73064
lowerneck -10.1894 0.444967 -1.71812
upperneck 28.6794 1.05162 -0.196287
head 10.8995 0.267076 0.353371
rclavicle -6.26172e-015 1.47101e-014
rhumerus -25.6648 -15.1241 -79.7415
rradius 25.4062
rwrist 29.4722
rhand -18.6746 -26.4675
rfingers 7.12502
rthumb 7.61927 -56.3102
lclavicle -6.26172e-015 1.47101e-014
lhumerus -20.5938 -0.329695 87.7149
lradius 18.7259
lwrist 6.23543
lhand -26.1872 -3.88137
lfingers 7.12502
lthumb 0.36495 26.0981
rfemur -17.7806 -2.19898 19.9958
rtibia 27.7346
rfoot -15.3629 -3.61755
rtoes 8.85877
lfemur -17.0003 8.29611 -18.5077
ltibia 25.8303
lfoot -13.0136 6.10295
ltoes -2.07165
104
root 0.554045 17.4256 -14.4748 6.88282 -0.296337 -1.52048
lowerback 1.20031 -0.690089 0.351953
upperback 4.18503 -0.981033 1.89158
thorax 3.6588 -0.513854 1.73084
lowerneck -10.2232 0.450013 -1.72578
upperneck 28.6995 1.05936 -0.188863
head 10.9138 0.270326 0.358526
rclavicle -9.14409e-015 2.3059e-014
rhumerus -25.6618 -15.1684 -79.7215
rradius 25.3922
rwrist 29.5077
rhand -18.6887 -26.4569
rfingers 7.12502
rthumb 7.6056 -56.3002
lclavicle -9.14409e-015 2.3059e-014
lhumerus -20.5996 -0.30122 87.7163
lradius 18.7209
lwrist 6.21397
lhand -26.1763 -3.87439
lfingers 7.12502
lthumb 0.37551 26.105
rfemur -17.7998 -2.19505 19.9843
rtibia 27.7782
rfoot -15.3871 -3.6272
rtoes 8.80079
lfemur -17.0155 8.30205 -18.5194
ltibia 25.8733
lfoot -13.0349 6.12507
ltoes -2.10342
105
root 0.555285 17.424 -14.4747 6.87908 -0.311443 -1.51632
lowerback 1.20748 -0.689794 0.348171
upperback 4.19211 -0.980562 1.88904
thorax 3.66212 -0.513738 1.73041
lowerneck -10.2569 0.455165 -1.73538
upperneck 28.7185 1.06774 -0.181715
head 10.9276 0.273641 0.363996
rclavicle 3.97569e-015 8.34896e-015
rhumerus -25.6569 -15.2102 -79.7032
rradius 25.3767
rwrist 29.5419
rhand -18.7022 -26.4453
rfingers 7.12502
rthumb 7.59256 -56.289
lclavicle 3.97569e-015 8.34896e-015
lhumerus -20.6041 -0.274815 87.7183
lradius 18.7126
lwrist 6.19319
lhand -26.1661 -3.86422
lfingers 7.12502
lthumb 0.385285 26.1152
rfemur -17.8199 -2.18815 19.9748
rtibia 27.8222
rfoot -15.4105 -3.63616
rtoes 8.74775
lfemur -17.0318 8.30879 -18.5289
ltibia 25.9175
lfoot -13.0557 6.1469
ltoes -2.1278
106
root 0.556505 17.4225 -14.4746 6.87559 -0.325891 -1.51357
lowerback 1.2161 -0.690039 0.34629
upperback 4.19784 -0.98079 1.88675
thorax 3.66319 -0.513901 1.72918
lowerneck -10.2871 0.460632 -1.74505
upperneck 28.735 1.07682 -0.175742
head 10.9397 0.277153 0.36912
rclavicle -9.74045e-015 2.46493e-014
rhumerus -25.6541 -15.2455 -79.6868
rradius 25.3624
rwrist 29.5705
rhand -18.7139 -26.4371
rfingers 7.12502
rthumb 7.58133 -56.2812
lclavicle -9.74045e-015 2.46493e-014
lhumerus -20.6107 -0.250474 87.7206
lradius 18.7015
lwrist 6.17192
lhand -26.1532 -3.84924
lfingers 7.12502
lthumb 0.397799 26.1301
rfemur -17.8403 -2.18021 19.9668
rtibia 27.8653
rfoot -15.4318 -3.64639
rtoes 8.69579
lfemur -17.0496 8.31556 -18.5368
ltibia 25.9632
lfoot -13.0756 6.16758
ltoes -2.14729
